<svg width="1200" height="675" viewBox="0 0 1200 675" xmlns="http://www.w3.org/2000/svg">
  <defs>
    <linearGradient id="bg" x1="0%" y1="0%" x2="100%" y2="100%">
      <stop offset="0%" stop-color="#0b132b"/>
      <stop offset="100%" stop-color="#0b132b"/>
    </linearGradient>
    <linearGradient id="barBlue" x1="0%" y1="0%" x2="0%" y2="100%">
      <stop offset="0%" stop-color="#edefeb"/>
      <stop offset="100%" stop-color="#edefeb"/>
    </linearGradient>
    <linearGradient id="barLight" x1="0%" y1="0%" x2="0%" y2="100%">
      <stop offset="0%" stop-color="#5a6c8f"/>
      <stop offset="100%" stop-color="#5a6c8f"/>
    </linearGradient>
    <radialGradient id="shadow" cx="50%" cy="50%" r="50%">
      <stop offset="0%" stop-color="#000000" stop-opacity="0.45"/>
      <stop offset="100%" stop-color="#000000" stop-opacity="0"/>
    </radialGradient>
  </defs>

  <rect width="1200" height="675" fill="url(#bg)"/>

  <ellipse cx="600" cy="560" rx="420" ry="55" fill="url(#shadow)"/>

  <g opacity="1">
    <rect x="120" y="330" width="26" height="150" fill="url(#barLight)"/>
    <rect x="160" y="300" width="26" height="180" fill="url(#barLight)"/>
    <rect x="200" y="270" width="26" height="210" fill="url(#barBlue)"/>
    <rect x="240" y="310" width="26" height="170" fill="url(#barLight)"/>
    <rect x="280" y="250" width="26" height="230" fill="url(#barBlue)"/>
    <rect x="320" y="220" width="26" height="260" fill="url(#barLight)"/>
    <rect x="360" y="190" width="26" height="290" fill="url(#barBlue)"/>
    <rect x="400" y="230" width="26" height="250" fill="url(#barLight)"/>
    <rect x="440" y="170" width="26" height="310" fill="url(#barBlue)"/>
    <rect x="480" y="150" width="26" height="330" fill="url(#barLight)"/>
    <rect x="520" y="130" width="26" height="350" fill="url(#barBlue)"/>
    <rect x="560" y="160" width="26" height="320" fill="url(#barLight)"/>
    <rect x="600" y="120" width="26" height="360" fill="url(#barBlue)"/>
    <rect x="640" y="140" width="26" height="340" fill="url(#barLight)"/>
    <rect x="680" y="100" width="26" height="380" fill="url(#barBlue)"/>
    <rect x="720" y="150" width="26" height="330" fill="url(#barLight)"/>
    <rect x="760" y="180" width="26" height="300" fill="url(#barBlue)"/>
    <rect x="800" y="210" width="26" height="270" fill="url(#barLight)"/>
    <rect x="840" y="170" width="26" height="310" fill="url(#barBlue)"/>
    <rect x="880" y="230" width="26" height="250" fill="url(#barLight)"/>
    <rect x="920" y="190" width="26" height="290" fill="url(#barBlue)"/>
    <rect x="960" y="250" width="26" height="230" fill="url(#barLight)"/>
    <rect x="1000" y="220" width="26" height="260" fill="url(#barBlue)"/>
    <rect x="1040" y="280" width="26" height="200" fill="url(#barLight)"/>
  </g>

  <polyline points="115,460 195,410 275,430 355,360 435,300 515,260 595,220 675,190 755,240 835,210 915,270 995,230 1075,290"
    fill="none" stroke="#edefeb" stroke-width="4.5" opacity="0.9"/>

  <g fill="#edefeb" opacity="0.95">
    <circle cx="115" cy="460" r="8"/>
    <circle cx="195" cy="410" r="5"/>
    <circle cx="275" cy="430" r="6"/>
    <circle cx="355" cy="360" r="10"/>
    <circle cx="435" cy="300" r="6"/>
    <circle cx="515" cy="260" r="7"/>
    <circle cx="595" cy="220" r="9"/>
    <circle cx="675" cy="190" r="6"/>
    <circle cx="755" cy="240" r="7"/>
    <circle cx="835" cy="210" r="5"/>
    <circle cx="915" cy="270" r="8"/>
    <circle cx="995" cy="230" r="6"/>
    <circle cx="1075" cy="290" r="7"/>
  </g>

  <g fill="#edefeb" opacity="0.4">
    <circle cx="80" cy="500" r="4"/>
    <circle cx="150" cy="140" r="3"/>
    <circle cx="1100" cy="140" r="4"/>
    <circle cx="1140" cy="330" r="3"/>
    <circle cx="60" cy="230" r="3"/>
    <circle cx="1150" cy="450" r="3"/>
  </g>

  <rect x="60" y="212" width="1080" height="255" rx="16" fill="#0b132b" opacity="0.55"/>

  <text x="600" y="288" text-anchor="middle" font-family="Arial, Helvetica, sans-serif" font-size="56" font-weight="700" fill="#edefeb" letter-spacing="1">
    Athens Macro
  </text>
  <text x="600" y="352" text-anchor="middle" font-family="Arial, Helvetica, sans-serif" font-size="56" font-weight="700" fill="#edefeb" letter-spacing="1">
    Workshop
  </text>
  <text x="600" y="432" text-anchor="middle" font-family="Arial, Helvetica, sans-serif" font-size="50" font-weight="700" fill="#edefeb" letter-spacing="5">
    2026
  </text>

</svg>
